<?xml version="1.0" standalone="no"?>
<!DOCTYPE svg PUBLIC "-//W3C//DTD SVG 20010904//EN"
 "http://www.w3.org/TR/2001/REC-SVG-20010904/DTD/svg10.dtd">
<svg version="1.0" xmlns="http://www.w3.org/2000/svg"
 width="256.000000pt" height="256.000000pt" viewBox="0 0 256.000000 256.000000"
 preserveAspectRatio="xMidYMid meet">

<g transform="translate(0.000000,256.000000) scale(0.100000,-0.100000)"
fill="#000000" stroke="none">
<path d="M1315 2499 c-16 -5 -100 -14 -185 -19 -85 -5 -180 -16 -211 -24 -59
-16 -181 -69 -139 -62 31 6 341 40 554 61 87 8 166 19 174 24 15 8 -1 11 -128
26 -19 2 -48 -1 -65 -6z"/>
<path d="M1765 2401 c-10 -17 -105 -31 -369 -56 -578 -55 -772 -77 -851 -100
-49 -15 -153 -95 -175 -135 -9 -17 -7 -17 43 -4 84 22 333 52 736 89 565 52
723 71 787 96 l29 10 -40 25 c-76 47 -154 84 -160 75z"/>
<path d="M2137 2126 c-40 -31 -235 -56 -892 -116 -622 -57 -910 -92 -1004
-124 -38 -13 -69 -58 -110 -163 l-20 -52 32 14 c95 40 372 75 1142 145 661 61
942 99 991 134 17 13 16 16 -16 58 -40 52 -98 118 -102 118 -2 0 -11 -7 -21
-14z"/>
<path d="M2390 1725 c-80 -41 -320 -72 -1160 -150 -212 -19 -421 -40 -465 -45
-44 -6 -172 -22 -285 -35 -213 -27 -349 -54 -400 -80 l-30 -16 0 -113 0 -113
38 18 c89 44 462 96 1222 169 583 57 860 90 1012 120 100 21 158 42 158 59 0
16 -51 186 -58 193 -4 3 -18 1 -32 -7z"/>
<path d="M2486 1245 c-10 -8 -57 -23 -105 -34 -161 -37 -319 -56 -1346 -155
-340 -34 -572 -61 -718 -86 -117 -20 -207 -50 -207 -68 0 -17 72 -182 81 -188
6 -3 16 -1 23 5 46 39 383 85 1061 146 770 69 1086 111 1175 153 35 17 35 18
47 112 16 120 15 133 -11 115z"/>
<path d="M2340 754 c-101 -33 -345 -62 -1030 -124 -661 -60 -955 -101 -967
-135 -2 -6 30 -43 70 -83 l73 -72 30 14 c27 14 95 27 284 55 41 7 273 29 515
51 627 57 874 88 957 121 25 10 42 34 125 182 5 9 -3 8 -57 -9z"/>
<path d="M2065 369 c-57 -17 -250 -40 -634 -74 -526 -48 -721 -74 -721 -96 0
-6 26 -22 58 -36 94 -42 127 -52 144 -42 25 14 194 36 443 59 287 26 486 48
545 61 48 11 111 48 175 103 42 37 40 40 -10 25z"/>
</g>
</svg>
